<?xml version="1.0" encoding="UTF-8"?>
<svg viewBox="0 0 566.29688 534.1618" xmlns="http://www.w3.org/2000/svg">
 <defs>
  <filter id="f">
   <feGaussianBlur in="SourceGraphic" result="result0" stdDeviation="6"/>
   <feDiffuseLighting result="result5" surfaceScale="4">
    <feDistantLight azimuth="235" elevation="45"/>
   </feDiffuseLighting>
   <feComposite in="result5" in2="SourceGraphic" k1="1.4" operator="arithmetic" result="fbSourceGraphic"/>
   <feGaussianBlur in="fbSourceGraphic" result="result0" stdDeviation="6"/>
   <feSpecularLighting in="result0" result="result1" specularExponent="25" surfaceScale="4">
    <feDistantLight azimuth="235" elevation="45"/>
   </feSpecularLighting>
   <feComposite in="fbSourceGraphic" in2="result1" k2="1" k3="1" operator="arithmetic" result="result4"/>
   <feComposite in="result4" in2="SourceGraphic" operator="in" result="result2"/>
  </filter>
  <filter id="g" x="-.05312" y="-.26122" width="1.1062" height="1.5224">
   <feGaussianBlur stdDeviation="8.0267"/>
  </filter>
  <linearGradient id="b" x1="375.02" x2="394.83" y1="812.82" y2="741.47" gradientTransform="matrix(-.6769 .62278 -.64593 -.70206 1207.2 -108.62)" gradientUnits="userSpaceOnUse">
   <stop stop-color="#3a2d49" offset="0"/>
   <stop stop-color="#3a2d49" stop-opacity="0" offset="1"/>
  </linearGradient>
  <linearGradient id="c" x1="823.32" x2="814.02" y1="820.47" y2="881.89" gradientTransform="matrix(.55552 -.02156 .01273 .58027 44.125 -295.36)" gradientUnits="userSpaceOnUse">
   <stop stop-color="#97bf0f" offset="0"/>
   <stop stop-color="#97bf0f" stop-opacity="0" offset="1"/>
  </linearGradient>
  <linearGradient id="e" x1="830.87" x2="634.28" y1="397.21" y2="512.27" gradientUnits="userSpaceOnUse">
   <stop stop-color="#2f7022" offset="0"/>
   <stop stop-color="#2f7022" stop-opacity="0" offset="1"/>
  </linearGradient>
  <linearGradient id="d" x1="592.05" x2="694.64" y1="566.04" y2="351.82" gradientUnits="userSpaceOnUse">
   <stop stop-color="#2fb022" offset="0"/>
   <stop stop-color="#2f7022" stop-opacity="0" offset="1"/>
  </linearGradient>
  <radialGradient id="a" cx="827.69" cy="802.44" r="10.848" gradientTransform="matrix(.54978 .07611 -.29966 2.1386 299.55 -1626.6)" gradientUnits="userSpaceOnUse">
   <stop stop-color="#358721" offset="0"/>
   <stop stop-color="#358721" stop-opacity="0" offset="1"/>
  </radialGradient>
 </defs>
 <g transform="translate(-66.852 -265.26)">
  <path transform="matrix(1.2395 0 0 1.5867 54.547 -39.19)" d="m447.54 472.38c0 20.365-81.188 36.874-181.34 36.874s-181.34-16.509-181.34-36.874 81.188-36.874 181.34-36.874 181.34 16.509 181.34 36.874z" filter="url(#g)" opacity=".15"/>
  <path d="m140.85 513.29h388.72l-59.572 203.48s-36.597 18-134.79 18-134.79-18-134.79-18z" fill="#504416"/>
  <g transform="matrix(.93926 -.01968 .01968 .93926 -310.2 45.369)">
   <g transform="translate(211.36 24.351)">
    <g transform="matrix(-.81058 .58563 -.58563 -.81058 1309.5 375.13)" fill-rule="evenodd">
     <path d="m891.22 346.99c-30.335-11.056-18.122 38.445-123.11 32.687-11.334-0.32919-13.002-1.3185-16.47 0s-1.7023 3.1277-6.1764 5.4901-16.775 3.0647-24.706 6.1764-18.952 12.243-27.451 15.098-19.438 1.2934-28.137 4.1176-22.675 12.757-28.823 15.098-7.3706-0.10371-10.98 2.7451-8.3393 12.494-8.9214 17.157 3.3208 5.6107 2.7451 11.667-11.627 15.386-11.667 26.078 10.892 31.65 17.157 39.117 11.356 8.5064 18.529 12.353 20.188 9.6469 29.509 12.353 23.681 4.6456 32.254 5.4901 24.706 0.68627 24.706 0.68627 28.187-7.4561 35-11.667 9.6809-8.4537 11.667-11.667 0.13302-6.4605 2.7451-8.2352 6.0299 3.2091 12.353 0.68627 15.945-16.403 22.647-24.019 16.75-20.038 21.96-26.764c19.007-17.817 21.1-42.578 23.901-57.517 2.7343-14.579 85.972-28.367 31.265-67.13z" fill="#1e3621"/>
     <path d="m841.43 387.24c1.3247-4.9384-8.8642 1.6721-19.891 1.8683s-43.188-2.8096-53.453-3.1077-11.776-1.1942-14.917 0-1.5418 2.8328-5.5939 4.9724-15.193 2.7757-22.376 5.5939-17.165 11.088-24.862 13.674-17.604 1.1714-25.483 3.7293-20.537 11.554-26.105 13.674-6.6755-0.0939-9.9447 2.4862-7.5529 11.316-8.0801 15.539 3.0076 5.0816 2.4862 10.566-10.531 13.935-10.566 23.619 9.8644 28.665 15.539 35.428 10.285 7.7042 16.782 11.188 18.284 8.7371 26.726 11.188 21.448 4.2075 29.213 4.9724 22.376 0.62155 22.376 0.62155 25.529-6.7529 31.699-10.566 8.7679-7.6564 10.566-10.566 0.12048-5.8512 2.4862-7.4585 5.4612 2.9065 11.188 0.62154 14.442-14.856 20.511-21.754 15.17-18.149 19.889-24.24 9.2193-12.95 11.809-16.16 2.3346 1.1884 4.9724-5.5939 11.006-34.387 0.62275-41.026-29.046 18.84-37.068 17.825-10.195 1.2297-9.773-8.2288 39.766-23.345 41.247-28.864z" fill="url(#e)"/>
    </g>
   </g>
   <path d="m613.58 575.61c1.8182 4.7787 6.2059-6.5465 15.029-13.163s36.653-23.015 45.148-28.784 10.245-5.9285 12.091-8.7358-0.40919-3.1991 1.6224-7.3064 10.69-11.147 14.861-17.638 7.42-19.04 12.145-25.644 13.584-11.259 18.472-17.947 9.8802-21.392 13.152-26.372 5.466-3.8332 6.605-7.8391-0.50479-13.596-2.5503-17.327-5.4138-2.3577-8.2031-7.1088 0.37551-17.462-5.2669-25.333-24.783-17.458-33.343-19.617-12.849-0.22148-20.155 0.75917-19.937 3.6254-28.216 6.5831-19.849 9.1498-26.591 13.077-18.501 12.6-18.501 12.6-16.738 20.424-19.507 27.128-2.6233 11.341-2.3769 14.753 3.329 4.8135 2.3526 7.5017-6.1289 0.8423-9.4326 6.048-3.0062 20.499-3.8861 29.645-1.6686 23.595-1.9263 31.296 0.11075 15.896-0.10863 20.015-2.5884 0.4039-0.75456 7.4463 11.216 34.319 23.521 33.619 12.511-32.281 19.608-36.157 7.544-6.9674 12.741 0.94679-18.562 42.211-16.53 47.552z" fill="url(#d)" fill-rule="evenodd"/>
   <path d="m624.57 550.52s32.6-15.932 31.485-18.552c-1.4575-3.4229-29.285 11.867-29.285 11.867l6.6459-8.464s24.107-14.074 32.742-20.263 27.096-18.123 24.933-20.558c-1.8242-2.0544-25.563 17.951-34.933 23.128s-26.348 12.703-26.348 12.703l9.4164-12.74s78.327-48.328 75.979-50.652c-3.2206-3.1869-77.682 45.946-77.682 45.946l7.3896-21.415 24.708-31.383s16.58 2.7613 26.492 0.32913 38.921-14.352 36.588-19.688c-0.62118-1.4212-28.82 14.404-38.447 15.941s-23.303-1.785-23.303-1.785l12.976-19.553s55.215-50.305 53.815-53.26c-1.6156-3.4107-55.809 48.311-54.87 49.781 0.0577 0.0902-2.2741-15.739-1.0368-23.987s11.355-28.54 11.355-28.54 16.001-23.063 14.952-24.136c-1.486-1.5202-14.143 13.779-19.329 22.446s-12.6 25.532-13.549 35.195 3.2182 16.045 2.6006 22.029-22.131 31.236-22.131 31.236l-5.3675-14.216c-2.2127-5.8603-2.4634 3.8156 1.2231 19.537l-19.779 31.214 15.782-58.692 2.8575-8.3088s-0.52513 2.0238 0.95011-1.539 3.3108-14.365 5.9111-23.558 11.429-35.755 11.429-35.755 13.473-20.267 11.86-20.661c-2.314-0.56608-12.114 15.341-12.114 15.341l-9.2522 27.002-9.6992-16.919s-0.9608-15.992-2.3795-15.936c-2.1322 0.0844 0.0505 22.076 0.0505 22.076l8.9326 14.712-4.3553 20.919-9.6739-3.9983s-5.3881-24.85-7.9433-23.908c-3.1642 1.1669 5.1569 25.921 5.1569 25.921l9.9219 5.5155s-8.8362 27.589-8.8749 27.577c-0.72833-0.22954-7.8803-16.189-11.351-25.648s-6.9339-37.094-9.4812-37.177c-2.1655-0.0709 2.7946 33.522 6.2014 43.749s13.303 21.724 13.325 24.26c6e-3 0.69488-5.1931 20.86-7.1306 21.228-2.6171 0.49673-7.1852-7.6642-9.6237-5.7309-3.7134 2.9441 8.6846 13.195 8.6846 13.195s-2.9879 14.753-3.582 16.12c-0.72175 1.6609-5.1122-8.925-7.6928-7.1259-2.9474 2.0547 4.5971 11.059 4.5971 11.059l-6.9257 18.536-0.92433-39.967s-0.14042-25.667-2.1616-32.287-4.5702-17.41-4.5702-17.41l-2.5774-20.605s-2.7793-6.8583-4.9861-5.7274 2.045 8.7004 2.045 8.7004 2.9119 21.475 0.0415 21.135c-2.4757-0.29335-9.0863-14.866-12.772-15.33s-4.6413-1.1573-1.9425 2.0346c3.0361 3.5908 14.096 17.135 14.096 17.135s5.1366 7.5968 7.5837 19.889 1.7894 62.242 1.7894 62.242l0.88024 3.5663-2.4559 4.7925s-6.7515-26.598-10.054-34.693-6.4912-19.553-10.481-19.53c-4.4159 0.0249 7.2927 21.178 9.3378 30.534s4.2515 31.632 4.2515 31.632l-31.673 68.523s-7.1729 22.34-0.82894 28.104 17.717 2.4036 23.849-3.7374 4.9858-18.227 8.9459-30.912 19.784-52.502 19.784-52.502z" fill="#fbeee6" fill-rule="evenodd"/>
  </g>
  <g transform="matrix(1.0494 1.1052 1.1052 -1.0494 -316.5 769.99)">
   <g transform="translate(-28.217 203.16)">
    <g transform="matrix(.85466 .27631 .30204 -.93426 -87.433 -302.98)">
     <path d="m488.9-320.14c0.93856-1.4559-2.3552-12.083-2.6663-13.364s-0.0454-0.24006-0.0903-0.33168 0.28377 0.37617-0.20269-0.2687-1.8299-3.8621-3.0404-4.0304-2.307 0.70623-2.4704 1.8708 2.0486 2.0427 2.8459 3.7919 0.28648 6.9872 1.6956 7.8943 2.99 5.8942 3.9285 4.4383z" fill="#829a6b" fill-rule="evenodd"/>
     <path d="m478.71-318.17c1.5212-1.7135-1.2062-15.175-3.0761-16.653s-1.5994-1.5178-3.0781 0.35211 2.041 12.885 3.0786 11.307 1.5543 6.7078 3.0756 4.9943z" fill="#829a6b" fill-rule="evenodd"/>
     <path d="m478.57-297.41 0.41795-12.746s-4.3848 3.1788-5.3613 4.6994 0.36648 7.7401 1.887 8.7167 3.0563-0.67005 3.0563-0.67005z" fill="#829a6b" fill-rule="evenodd"/>
     <path d="m479.26-300.47c0.3482-2.4652-4.7167-5.8695-4.9695-8.1716s0.206-4.2539 1.8909-5.5629 6.335 0.63028 8.3235-0.64898 2.981-4.5211 3.5888-6.4878-0.48378-4.1098 0.59339-6.2806 6.7707-4.3489 7.2467-6.6673-1.6478-0.54739-2.4296-5.4109 2.953-16.311 2.7738-26.765-3.2213-31.979-5.8676-42.391-5.5097-20.124-10.16-26.972-12.61-15.078-19.505-17.737-16.632-2.8608-22.9 0.042-12.544 10.582-15.004 17.628-0.5566 19.488 0.88413 26.586 4.8027 13.709 7.7857 20.236 9.1182 14.328 12.313 23.079 5.0958 29.389 7.4962 35.157 2.5535 3.3662 3.1197 4.7759-0.49711 2.2707 0.81453 4.3481 8.3246 4.588 9.6627 7.0396 1.3667 5.038 0.38667 6.6533-4.8358 0.19905-5.4109 2.4296 3.3937 5.9945 5.6596 7.5366 6.2155 2.9073 8.5306 2.3464 4.828-2.2972 5.1762-4.7624z" fill="#552f53" fill-rule="evenodd" stroke="#000039" stroke-width="1.8166"/>
     <path d="m479.12-308.75c0.28374-2.3072-4.5124-5.5878-4.788-7.7522s0.12025-3.988 1.6742-5.1876 5.937 0.69929 7.7755-0.4672 2.7116-4.1915 3.2467-6.0265-0.52257-3.8646 0.44813-5.8832 6.2598-3.9654 6.6656-6.1327-1.5508-0.54169-2.365-5.1186 2.4847-15.255 2.139-25.067-3.5582-30.062-6.211-39.876-5.497-18.976-9.964-25.481-12.053-14.363-18.549-16.975-15.608-2.9676-21.422-0.35059-11.554 9.7161-13.736 16.285-0.1888 18.277 1.2799 24.961 4.7264 12.945 7.6281 19.12 8.7739 13.6 11.912 21.866 5.2675 27.663 7.6114 33.117 2.4461 3.202 2.9998 4.5345-0.42636 2.1222 0.83603 4.0938 7.8657 4.4468 9.1592 6.77 1.3644 4.7505 0.47503 6.2495-4.5205 0.10441-5.0204 2.1876 3.2769 5.6826 5.4229 7.1681 5.864 2.8338 8.0202 2.347 4.4774-2.0733 4.7612-4.3805z" fill="url(#b)" fill-rule="evenodd"/>
     <path d="m484.93-412.05c-8.6419-34.13-26.676-36.257-41.789-39.51 20.937 21.414 32.499 24.666 45.394 101.21 2.4959-36.636 1.2346-41.245-3.605-61.697z" fill="#774666"/>
     <path d="m494.24-333.36c0.47598-2.3184 0.91343-4.6761-2.4296-5.4109s-8.6707 11.404-12.74 11.085-4.3765-5.759-6.6397-7.9092-5.7665-6-8.3651-6.3218-5.7088 0.84718-6.4186 2.7195 4.5003 4.2084 2.7471 5.756-5.8387-5.3772-7.7577-4.9691-1.9178 1.0132-2.1257 3.2301 3.1848 8.508 4.2242 10.132 1.0364 0.74253 1.27 1.3803 0.12943 0.61008 1.2148 2.7055 8.3433 4.3369 9.6627 7.0396 0.6452 5.4089-0.62097 6.9432-5.2822-0.78064-6.0459 1.7394 4.79 7.4558 7.2747 8.5994 5.31 0.51807 6.9708-0.0416 3.3534-0.51784 3.7683-2.8298-5.603-6.5453-5.922-9.2068 0.17224-5.1181 2.2636-6.5429 7.3283 2.4447 9.9386 0.41385 0.85736-8.9813 2.4843-11.844 6.7707-4.3489 7.2467-6.6673z" fill="#93b279" fill-rule="evenodd"/>
     <path d="m483.14-316.46c1.7134-1.2307 0.0963-6.6021 0.98775-8.8496s4.5574-4.24 4.3317-5.7689 2.0964-2.2726 0.50603-2.0358-6.8249 5.3657-7.5626 6.3201-0.2099 0.20544-0.25665 0.32106 0.26549-0.96373-0.0395 0.41856c-0.30504 1.3823-0.4133 7.1254 0.62177 8.9829s-0.30188 1.8425 1.4115 0.61179z" fill="#829a6b" fill-rule="evenodd"/>
     <path d="m475.15-325.24c0.16362-1.7245-7.6493-9.6448-8.5152-10.64s-0.15069-0.19229-0.23274-0.25297 0.425 0.20348-0.30358-0.14533-3.4014-2.5874-4.5536-2.1801-1.7235 1.6883-1.3329 2.7975 2.7586 0.87142 4.2712 2.0577 3.4686 6.0723 5.137 6.2295 5.3662 3.8581 5.5298 2.1336z" fill="#829a6b" fill-rule="evenodd"/>
     <path d="m467.01-318.82c0.56253-2.2212-8.0514-12.919-10.392-13.372s-2.1183-0.6119-2.5711 1.7286 7.7396 10.502 7.9348 8.6233 4.4657 5.241 5.0283 3.0198z" fill="#829a6b" fill-rule="evenodd"/>
     <path d="m476.43-300.31-5.4921-11.51s-2.431 4.8395-2.5986 6.6389 3.8859 6.704 5.6852 6.8716 2.4055-2.0009 2.4055-2.0009z" fill="#829a6b" fill-rule="evenodd"/>
    </g>
   </g>
  </g>
  <g transform="matrix(-.93926 -.01968 -.01968 .93926 792.12 11.369)">
   <g transform="translate(211.36 24.351)">
    <g transform="matrix(-.81058 .58563 -.58563 -.81058 1309.5 375.13)" fill-rule="evenodd">
     <path d="m891.22 346.99c-30.335-11.056-18.122 38.445-123.11 32.687-11.334-0.32919-13.002-1.3185-16.47 0s-1.7023 3.1277-6.1764 5.4901-16.775 3.0647-24.706 6.1764-18.952 12.243-27.451 15.098-19.438 1.2934-28.137 4.1176-22.675 12.757-28.823 15.098-7.3706-0.10371-10.98 2.7451-8.3393 12.494-8.9214 17.157 3.3208 5.6107 2.7451 11.667-11.627 15.386-11.667 26.078 10.892 31.65 17.157 39.117 11.356 8.5064 18.529 12.353 20.188 9.6469 29.509 12.353 23.681 4.6456 32.254 5.4901 24.706 0.68627 24.706 0.68627 28.187-7.4561 35-11.667 9.6809-8.4537 11.667-11.667 0.13302-6.4605 2.7451-8.2352 6.0299 3.2091 12.353 0.68627 15.945-16.403 22.647-24.019 16.75-20.038 21.96-26.764c19.007-17.817 21.1-42.578 23.901-57.517 2.7343-14.579 85.972-28.367 31.265-67.13z" fill="#1e3621"/>
     <path d="m841.43 387.24c1.3247-4.9384-8.8642 1.6721-19.891 1.8683s-43.188-2.8096-53.453-3.1077-11.776-1.1942-14.917 0-1.5418 2.8328-5.5939 4.9724-15.193 2.7757-22.376 5.5939-17.165 11.088-24.862 13.674-17.604 1.1714-25.483 3.7293-20.537 11.554-26.105 13.674-6.6755-0.0939-9.9447 2.4862-7.5529 11.316-8.0801 15.539 3.0076 5.0816 2.4862 10.566-10.531 13.935-10.566 23.619 9.8644 28.665 15.539 35.428 10.285 7.7042 16.782 11.188 18.284 8.7371 26.726 11.188 21.448 4.2075 29.213 4.9724 22.376 0.62155 22.376 0.62155 25.529-6.7529 31.699-10.566 8.7679-7.6564 10.566-10.566 0.12048-5.8512 2.4862-7.4585 5.4612 2.9065 11.188 0.62154 14.442-14.856 20.511-21.754 15.17-18.149 19.889-24.24 9.2193-12.95 11.809-16.16 2.3346 1.1884 4.9724-5.5939 11.006-34.387 0.62275-41.026-29.046 18.84-37.068 17.825-10.195 1.2297-9.773-8.2288 39.766-23.345 41.247-28.864z" fill="url(#e)"/>
    </g>
   </g>
   <path d="m613.58 575.61c1.8182 4.7787 6.2059-6.5465 15.029-13.163s36.653-23.015 45.148-28.784 10.245-5.9285 12.091-8.7358-0.40919-3.1991 1.6224-7.3064 10.69-11.147 14.861-17.638 7.42-19.04 12.145-25.644 13.584-11.259 18.472-17.947 9.8802-21.392 13.152-26.372 5.466-3.8332 6.605-7.8391-0.50479-13.596-2.5503-17.327-5.4138-2.3577-8.2031-7.1088 0.37551-17.462-5.2669-25.333-24.783-17.458-33.343-19.617-12.849-0.22148-20.155 0.75917-19.937 3.6254-28.216 6.5831-19.849 9.1498-26.591 13.077-18.501 12.6-18.501 12.6-16.738 20.424-19.507 27.128-2.6233 11.341-2.3769 14.753 3.329 4.8135 2.3526 7.5017-6.1289 0.8423-9.4326 6.048-3.0062 20.499-3.8861 29.645-1.6686 23.595-1.9263 31.296 0.11075 15.896-0.10863 20.015-2.5884 0.4039-0.75456 7.4463 11.216 34.319 23.521 33.619 12.511-32.281 19.608-36.157 7.544-6.9674 12.741 0.94679-18.562 42.211-16.53 47.552z" fill="url(#d)" fill-rule="evenodd"/>
   <path d="m624.57 550.52s32.6-15.932 31.485-18.552c-1.4575-3.4229-29.285 11.867-29.285 11.867l6.6459-8.464s24.107-14.074 32.742-20.263 27.096-18.123 24.933-20.558c-1.8242-2.0544-25.563 17.951-34.933 23.128s-26.348 12.703-26.348 12.703l9.4164-12.74s78.327-48.328 75.979-50.652c-3.2206-3.1869-77.682 45.946-77.682 45.946l7.3896-21.415 24.708-31.383s16.58 2.7613 26.492 0.32913 38.921-14.352 36.588-19.688c-0.62118-1.4212-28.82 14.404-38.447 15.941s-23.303-1.785-23.303-1.785l12.976-19.553s55.215-50.305 53.815-53.26c-1.6156-3.4107-55.809 48.311-54.87 49.781 0.0577 0.0902-2.2741-15.739-1.0368-23.987s11.355-28.54 11.355-28.54 16.001-23.063 14.952-24.136c-1.486-1.5202-14.143 13.779-19.329 22.446s-12.6 25.532-13.549 35.195 3.2182 16.045 2.6006 22.029-22.131 31.236-22.131 31.236l-5.3675-14.216c-2.2127-5.8603-2.4634 3.8156 1.2231 19.537l-19.779 31.214 15.782-58.692 2.8575-8.3088s-0.52513 2.0238 0.95011-1.539 3.3108-14.365 5.9111-23.558 11.429-35.755 11.429-35.755 13.473-20.267 11.86-20.661c-2.314-0.56608-12.114 15.341-12.114 15.341l-9.2522 27.002-9.6992-16.919s-0.9608-15.992-2.3795-15.936c-2.1322 0.0844 0.0505 22.076 0.0505 22.076l8.9326 14.712-4.3553 20.919-9.6739-3.9983s-5.3881-24.85-7.9433-23.908c-3.1642 1.1669 5.1569 25.921 5.1569 25.921l9.9219 5.5155s-8.8362 27.589-8.8749 27.577c-0.72833-0.22954-7.8803-16.189-11.351-25.648s-6.9339-37.094-9.4812-37.177c-2.1655-0.0709 2.7946 33.522 6.2014 43.749s13.303 21.724 13.325 24.26c6e-3 0.69488-5.1931 20.86-7.1306 21.228-2.6171 0.49673-7.1852-7.6642-9.6237-5.7309-3.7134 2.9441 8.6846 13.195 8.6846 13.195s-2.9879 14.753-3.582 16.12c-0.72175 1.6609-5.1122-8.925-7.6928-7.1259-2.9474 2.0547 4.5971 11.059 4.5971 11.059l-6.9257 18.536-0.92433-39.967s-0.14042-25.667-2.1616-32.287-4.5702-17.41-4.5702-17.41l-2.5774-20.605s-2.7793-6.8583-4.9861-5.7274 2.045 8.7004 2.045 8.7004 2.9119 21.475 0.0415 21.135c-2.4757-0.29335-9.0863-14.866-12.772-15.33s-4.6413-1.1573-1.9425 2.0346c3.0361 3.5908 14.096 17.135 14.096 17.135s5.1366 7.5968 7.5837 19.889 1.7894 62.242 1.7894 62.242l0.88024 3.5663-2.4559 4.7925s-6.7515-26.598-10.054-34.693-6.4912-19.553-10.481-19.53c-4.4159 0.0249 7.2927 21.178 9.3378 30.534s4.2515 31.632 4.2515 31.632l-31.673 68.523s-7.1729 22.34-0.82894 28.104 17.717 2.4036 23.849-3.7374 4.9858-18.227 8.9459-30.912 19.784-52.502 19.784-52.502z" fill="#fbeee6" fill-rule="evenodd"/>
  </g>
  <g transform="matrix(1.2166 .1368 .02988 1.2056 -150.13 -72.67)">
   <path d="m426.1 393.97c-0.3586 2.0728-0.22757 6.9741-0.29365 8.2225 1.9896 2.1295 6.9931-0.35719 8.8098 1.1746s2.4687 5.4292 1.4683 7.0479c-0.41309-0.43692-2.1256 1.6092-4.6986 2.3493-2.8453 0.81842-7.9135-1.6749-11.159-0.88098s-7.5812 3.3949-9.3972 5.8732-2.1411 3.6706-2.3493 9.1035 3.1686 19.383 4.6986 26.43 2.427 16.823 5.2859 20.556 5.6394 3.947 8.8099 4.9922 9.268 0.8044 12.04 1.4683 4.4783 2.9484 6.4606 2.3493 3.6682-3.108 4.4049-4.4049c1.2847-0.97556 3.6143 1.9836 5.5796 2.3493s3.1541-0.26474 7.0479-2.3493 9.8153-11.134 12.334-16.151 4.0943-10.24 4.6986-16.445-0.0112-19.039-2.0556-24.374-5.2486-9.3866-8.2225-10.865-6.4102-0.49716-8.5162 0-3.8599-0.55977-5.2859-0.88099c-1.1677-0.26304-5.3794-1.3236-8.8099-1.4683-2.0374-1.9747-1.8174-5.4493-3.5239-7.9289s-3.6034-5.9266-6.4606-7.0479-10.495-1.2602-10.866 0.88099z" fill="#1a8025" fill-rule="evenodd" stroke="#00582a" stroke-linejoin="round" stroke-width="2.8112"/>
   <path d="m433.23 414.1c-6.4251 4.8428-10.071 16.154-10.071 32.294 0 17.912 11.176 30.088 19.688 32.438-14.335-18.736-15.639-26.57-14.974-36.688s2.3211-20.295 5.3575-28.044z" fill="#00652b"/>
   <path d="m448.88 411.21c7.1869 3.6171 12.795 14.095 15.678 29.975 3.2001 17.624-5.6209 31.601-13.576 35.433 6.0584-21.877 6.8226-29.23 5.2424-39.066-1.5734-9.7945-2.9728-19.26-7.3448-26.342z" fill="#00652b"/>
   <path d="m413.75 439.17c-5.6287-10.871-0.72797-28.605 15.338-22.739-7.5643 1.7261-11.177 8.2407-15.338 22.739z" fill="#fce94f" opacity=".3435"/>
   <path d="m434.81 417.98c-1.6916-3.2119 9.8934-6.6177 13.262-3.8316s0.64873 15.034-1.4189 15.271c-1.5481 0.1777-10.271-8.4547-11.843-11.439z" fill="#fce94f" fill-rule="evenodd" opacity=".3435"/>
   <path d="m427.57 393.38c-1.375 1.4289-2.2067 6.6642-0.58732 8.2225s5.8458-1.4712 7.9289 0 1.4504 10.047 3.5239 8.5162c2.2051-1.628 4.3294-1.1037 6.7542-0.88099s-3.766-11.688-6.1669-13.802-4.1279-1.759-5.8732-2.0556-4.2046-1.4289-5.5796 0z" fill="#4e9a06" fill-rule="evenodd"/>
   <path d="m426.98 399.55s4.6843 1.307 7.9289-1.4683c2.93-2.5063 5.2859 10.278 5.2859 10.278" fill="none" stroke="#2d8f20" stroke-width="2.1498"/>
  </g>
  <g transform="matrix(-1.134 .43807 .40977 1.2123 775.5 -203.13)">
   <path d="m426.1 393.97c-0.3586 2.0728-0.22757 6.9741-0.29365 8.2225 1.9896 2.1295 6.9931-0.35719 8.8098 1.1746s2.4687 5.4292 1.4683 7.0479c-0.41309-0.43692-2.1256 1.6092-4.6986 2.3493-2.8453 0.81842-7.9135-1.6749-11.159-0.88098s-7.5812 3.3949-9.3972 5.8732-2.1411 3.6706-2.3493 9.1035 3.1686 19.383 4.6986 26.43 2.427 16.823 5.2859 20.556 5.6394 3.947 8.8099 4.9922 9.268 0.8044 12.04 1.4683 4.4783 2.9484 6.4606 2.3493 3.6682-3.108 4.4049-4.4049c1.2847-0.97556 3.6143 1.9836 5.5796 2.3493s3.1541-0.26474 7.0479-2.3493 9.8153-11.134 12.334-16.151 4.0943-10.24 4.6986-16.445-0.0112-19.039-2.0556-24.374-5.2486-9.3866-8.2225-10.865-6.4102-0.49716-8.5162 0-3.8599-0.55977-5.2859-0.88099c-1.1677-0.26304-5.3794-1.3236-8.8099-1.4683-2.0374-1.9747-1.8174-5.4493-3.5239-7.9289s-3.6034-5.9266-6.4606-7.0479-10.495-1.2602-10.866 0.88099z" fill="#e3001b" fill-rule="evenodd" stroke="#d40000" stroke-linejoin="round" stroke-width="2.7273"/>
   <path d="m433.23 414.1c-6.4251 4.8428-10.071 16.154-10.071 32.294 0 17.912 11.176 30.088 19.688 32.438-14.335-18.736-15.639-26.57-14.974-36.688s2.3211-20.295 5.3575-28.044z" fill="#d00018"/>
   <path d="m448.88 411.21c7.1869 3.6171 12.795 14.095 15.678 29.975 3.2001 17.624-5.6209 31.601-13.576 35.433 6.0584-21.877 6.8226-29.23 5.2424-39.066-1.5734-9.7945-2.9728-19.26-7.3448-26.342z" fill="#d00018"/>
   <path d="m413.75 439.17c-5.6287-10.871-0.72797-28.605 15.338-22.739-7.5643 1.7261-11.177 8.2407-15.338 22.739z" fill="#ea3d25"/>
   <path d="m434.81 417.98c-1.6916-3.2119 9.8934-6.6177 13.262-3.8316s0.64873 15.034-1.4189 15.271c-1.5481 0.1777-10.271-8.4547-11.843-11.439z" fill="#ea3d25" fill-rule="evenodd"/>
   <path d="m427.57 393.38c-1.375 1.4289-2.2067 6.6642-0.58732 8.2225s5.8458-1.4712 7.9289 0 1.4504 10.047 3.5239 8.5162c2.2051-1.628 4.3294-1.1037 6.7542-0.88099s-3.766-11.688-6.1669-13.802-4.1279-1.759-5.8732-2.0556-4.2046-1.4289-5.5796 0z" fill="#4e9a06" fill-rule="evenodd"/>
   <path d="m426.98 399.55s4.6843 1.307 7.9289-1.4683c2.93-2.5063 5.2859 10.278 5.2859 10.278" fill="none" stroke="#2d8f20" stroke-width="2.0856"/>
  </g>
  <g transform="matrix(-1.2166 .1368 -.02988 1.2056 970.36 5.119)">
   <path d="m426.1 393.97c-0.3586 2.0728-0.22757 6.9741-0.29365 8.2225 1.9896 2.1295 6.9931-0.35719 8.8098 1.1746s2.4687 5.4292 1.4683 7.0479c-0.41309-0.43692-2.1256 1.6092-4.6986 2.3493-2.8453 0.81842-7.9135-1.6749-11.159-0.88098s-7.5812 3.3949-9.3972 5.8732-2.1411 3.6706-2.3493 9.1035 3.1686 19.383 4.6986 26.43 2.427 16.823 5.2859 20.556 5.6394 3.947 8.8099 4.9922 9.268 0.8044 12.04 1.4683 4.4783 2.9484 6.4606 2.3493 3.6682-3.108 4.4049-4.4049c1.2847-0.97556 3.6143 1.9836 5.5796 2.3493s3.1541-0.26474 7.0479-2.3493 9.8153-11.134 12.334-16.151 4.0943-10.24 4.6986-16.445-0.0112-19.039-2.0556-24.374-5.2486-9.3866-8.2225-10.865-6.4102-0.49716-8.5162 0-3.8599-0.55977-5.2859-0.88099c-1.1677-0.26304-5.3794-1.3236-8.8099-1.4683-2.0374-1.9747-1.8174-5.4493-3.5239-7.9289s-3.6034-5.9266-6.4606-7.0479-10.495-1.2602-10.866 0.88099z" fill="#1a8025" fill-rule="evenodd" stroke="#00582a" stroke-linejoin="round" stroke-width="2.8112"/>
   <path d="m433.23 414.1c-6.4251 4.8428-10.071 16.154-10.071 32.294 0 17.912 11.176 30.088 19.688 32.438-14.335-18.736-15.639-26.57-14.974-36.688s2.3211-20.295 5.3575-28.044z" fill="#00652b"/>
   <path d="m448.88 411.21c7.1869 3.6171 12.795 14.095 15.678 29.975 3.2001 17.624-5.6209 31.601-13.576 35.433 6.0584-21.877 6.8226-29.23 5.2424-39.066-1.5734-9.7945-2.9728-19.26-7.3448-26.342z" fill="#00652b"/>
   <path d="m413.75 439.17c-5.6287-10.871-0.72797-28.605 15.338-22.739-7.5643 1.7261-11.177 8.2407-15.338 22.739z" fill="#fce94f" opacity=".3435"/>
   <path d="m434.81 417.98c-1.6916-3.2119 9.8934-6.6177 13.262-3.8316s0.64873 15.034-1.4189 15.271c-1.5481 0.1777-10.271-8.4547-11.843-11.439z" fill="#fce94f" fill-rule="evenodd" opacity=".3435"/>
   <path d="m427.57 393.38c-1.375 1.4289-2.2067 6.6642-0.58732 8.2225s5.8458-1.4712 7.9289 0 1.4504 10.047 3.5239 8.5162c2.2051-1.628 4.3294-1.1037 6.7542-0.88099s-3.766-11.688-6.1669-13.802-4.1279-1.759-5.8732-2.0556-4.2046-1.4289-5.5796 0z" fill="#4e9a06" fill-rule="evenodd"/>
   <path d="m426.98 399.55s4.6843 1.307 7.9289-1.4683c2.93-2.5063 5.2859 10.278 5.2859 10.278" fill="none" stroke="#2d8f20" stroke-width="2.1498"/>
  </g>
  <g transform="matrix(1.134 .43807 -.40977 1.2123 14.55 -142.52)">
   <path d="m426.1 393.97c-0.3586 2.0728-0.22757 6.9741-0.29365 8.2225 1.9896 2.1295 6.9931-0.35719 8.8098 1.1746s2.4687 5.4292 1.4683 7.0479c-0.41309-0.43692-2.1256 1.6092-4.6986 2.3493-2.8453 0.81842-7.9135-1.6749-11.159-0.88098s-7.5812 3.3949-9.3972 5.8732-2.1411 3.6706-2.3493 9.1035 3.1686 19.383 4.6986 26.43 2.427 16.823 5.2859 20.556 5.6394 3.947 8.8099 4.9922 9.268 0.8044 12.04 1.4683 4.4783 2.9484 6.4606 2.3493 3.6682-3.108 4.4049-4.4049c1.2847-0.97556 3.6143 1.9836 5.5796 2.3493s3.1541-0.26474 7.0479-2.3493 9.8153-11.134 12.334-16.151 4.0943-10.24 4.6986-16.445-0.0112-19.039-2.0556-24.374-5.2486-9.3866-8.2225-10.865-6.4102-0.49716-8.5162 0-3.8599-0.55977-5.2859-0.88099c-1.1677-0.26304-5.3794-1.3236-8.8099-1.4683-2.0374-1.9747-1.8174-5.4493-3.5239-7.9289s-3.6034-5.9266-6.4606-7.0479-10.495-1.2602-10.866 0.88099z" fill="#e3001b" fill-rule="evenodd" stroke="#d40000" stroke-linejoin="round" stroke-width="2.7273"/>
   <path d="m433.23 414.1c-6.4251 4.8428-10.071 16.154-10.071 32.294 0 17.912 11.176 30.088 19.688 32.438-14.335-18.736-15.639-26.57-14.974-36.688s2.3211-20.295 5.3575-28.044z" fill="#d00018"/>
   <path d="m448.88 411.21c7.1869 3.6171 12.795 14.095 15.678 29.975 3.2001 17.624-5.6209 31.601-13.576 35.433 6.0584-21.877 6.8226-29.23 5.2424-39.066-1.5734-9.7945-2.9728-19.26-7.3448-26.342z" fill="#d00018"/>
   <path d="m413.75 439.17c-5.6287-10.871-0.72797-28.605 15.338-22.739-7.5643 1.7261-11.177 8.2407-15.338 22.739z" fill="#ea3d25"/>
   <path d="m434.81 417.98c-1.6916-3.2119 9.8934-6.6177 13.262-3.8316s0.64873 15.034-1.4189 15.271c-1.5481 0.1777-10.271-8.4547-11.843-11.439z" fill="#ea3d25" fill-rule="evenodd"/>
   <path d="m427.57 393.38c-1.375 1.4289-2.2067 6.6642-0.58732 8.2225s5.8458-1.4712 7.9289 0 1.4504 10.047 3.5239 8.5162c2.2051-1.628 4.3294-1.1037 6.7542-0.88099s-3.766-11.688-6.1669-13.802-4.1279-1.759-5.8732-2.0556-4.2046-1.4289-5.5796 0z" fill="#4e9a06" fill-rule="evenodd"/>
   <path d="m426.98 399.55s4.6843 1.307 7.9289-1.4683c2.93-2.5063 5.2859 10.278 5.2859 10.278" fill="none" stroke="#2d8f20" stroke-width="2.0856"/>
  </g>
  <path d="m164.62 578.85s-26.146-67.804-23.962-102.98c7.8984-127.21 101.48-168.98 196.04-168.98s194.59 72.953 196.04 168.98c0.53382 35.396-25.962 102.98-25.962 102.98" fill="none" stroke="#806600" stroke-linecap="round" stroke-linejoin="round" stroke-width="24"/>
  <path d="m164.62 578.85s-26.146-67.804-23.962-102.98c7.8984-127.21 101.48-168.98 196.04-168.98s194.59 72.953 196.04 168.98c0.53382 35.396-25.962 102.98-25.962 102.98" fill="none" filter="url(#f)" opacity=".5" stroke="#000" stroke-linecap="round" stroke-linejoin="round" stroke-width="24"/>
  <g transform="matrix(2.3871 .52956 -.52956 2.3871 -647.94 -119.62)">
   <path d="m520.66 73.951c0.956-1.3837 5.6769-0.11245 6.5887 1.5988s0.19306 5.0267 0.57768 6.0958c0.31328 0.87098 3.982 0.5639 4.2903 1.1698 0.40757 0.80113-10.123 41.204-12.84 56.181s-4.3808 35.13-5.8701 43.437-2.7293 9.4608-2.719 12.133c9e-3 2.5172-1.0942 8.6717-1.6827 11.365s-1.1233 4.4186-1.2448 6.7302 0.5175 6.6443 0.095 8.2964-1.4521 1.2668-1.6555 2.2916 1.9228 2.7048 0.9401 3.9726-5.1723 0.41841-6.4012-0.19698-1.7142-0.37893-1.7533-2.1592 0.79308-2.4672 0.76431-4.0388-1.6033-2.8588-1.415-6.1815 3.9036-10.973 5.217-14.903 1.1122-4.343 2.495-11.233 3.1937-23.978 4.1687-34.908 2.513-27.471 3.4307-37.997 1.4598-31.082 2.7056-32.178c1.1489-1.0112 2.5616 1.2081 3.4088-0.13232 0.79436-1.2569-0.11447-7.8755 0.90023-9.3441z" fill="#fff" stroke="#7b9c11" stroke-width=".89974"/>
   <path d="m521.1 73.279-6.2458 43.77-2.8229 28.419-2.6712 21.049-2.9556 22.37-2.2712 10.725 5.23 2.7425 4.9856-29.812 2.5326-20.226 4.6021-25.87 2.0177-15.133 3.9042-29.115-0.46735-7.0183-5.8382-1.9007z" fill="url(#c)" fill-rule="evenodd"/>
   <path d="m519.62 84.464-3.6216-0.84125-6.6261 83.549 6.5073-53.271 3.7405-29.436z" fill="#318827" fill-rule="evenodd"/>
   <path d="m527.24 81.877 4.8774 0.95613-14.1 64.203 9.2229-65.159z" fill="#799c0c" fill-rule="evenodd"/>
   <path d="m499.86 226.45 0.86381-3.4699" fill="#7a9a13" fill-rule="evenodd" stroke="#7fa019" stroke-linecap="round" stroke-width=".57256"/>
   <path d="m501.59 226.71 0.0812-3.4396" fill="#7a9a13" fill-rule="evenodd" stroke="#7fa019" stroke-linecap="round" stroke-width=".57256"/>
   <path d="m503.33 227.13-0.22108-2.9369" fill="#7a9a13" fill-rule="evenodd" stroke="#7fa019" stroke-linecap="round" stroke-width=".57256"/>
   <path d="m504.59 227.58-0.39201-3.5848" fill="#7a9a13" fill-rule="evenodd" stroke="#7fa019" stroke-linecap="round" stroke-width=".57256"/>
   <path d="m506.47 227.5-1.1638-3.0639" fill="#7a9a13" fill-rule="evenodd" stroke="#7fa019" stroke-linecap="round" stroke-width=".57256"/>
   <path d="m513.14 131.84-7.0293 58.037 8.5596-16.86 7.6783-49.88-9.2086 8.703z" fill="url(#a)" fill-rule="evenodd"/>
  </g>
  <g transform="matrix(-1.8247 -1.6276 -1.6276 1.8247 1687.6 1089.1)">
   <path d="m520.66 73.951c0.956-1.3837 5.6769-0.11245 6.5887 1.5988s0.19306 5.0267 0.57768 6.0958c0.31328 0.87098 3.982 0.5639 4.2903 1.1698 0.40757 0.80113-10.123 41.204-12.84 56.181s-4.3808 35.13-5.8701 43.437-2.7293 9.4608-2.719 12.133c9e-3 2.5172-1.0942 8.6717-1.6827 11.365s-1.1233 4.4186-1.2448 6.7302 0.5175 6.6443 0.095 8.2964-1.4521 1.2668-1.6555 2.2916 1.9228 2.7048 0.9401 3.9726-5.1723 0.41841-6.4012-0.19698-1.7142-0.37893-1.7533-2.1592 0.79308-2.4672 0.76431-4.0388-1.6033-2.8588-1.415-6.1815 3.9036-10.973 5.217-14.903 1.1122-4.343 2.495-11.233 3.1937-23.978 4.1687-34.908 2.513-27.471 3.4307-37.997 1.4598-31.082 2.7056-32.178c1.1489-1.0112 2.5616 1.2081 3.4088-0.13232 0.79436-1.2569-0.11447-7.8755 0.90023-9.3441z" fill="#fff" stroke="#7b9c11" stroke-width=".89974"/>
   <path d="m521.1 73.279-6.2458 43.77-2.8229 28.419-2.6712 21.049-2.9556 22.37-2.2712 10.725 5.23 2.7425 4.9856-29.812 2.5326-20.226 4.6021-25.87 2.0177-15.133 3.9042-29.115-0.46735-7.0183-5.8382-1.9007z" fill="url(#c)" fill-rule="evenodd"/>
   <path d="m519.62 84.464-3.6216-0.84125-6.6261 83.549 6.5073-53.271 3.7405-29.436z" fill="#318827" fill-rule="evenodd"/>
   <path d="m527.24 81.877 4.8774 0.95613-14.1 64.203 9.2229-65.159z" fill="#799c0c" fill-rule="evenodd"/>
   <path d="m499.86 226.45 0.86381-3.4699" fill="#7a9a13" fill-rule="evenodd" stroke="#7fa019" stroke-linecap="round" stroke-width=".57256"/>
   <path d="m501.59 226.71 0.0812-3.4396" fill="#7a9a13" fill-rule="evenodd" stroke="#7fa019" stroke-linecap="round" stroke-width=".57256"/>
   <path d="m503.33 227.13-0.22108-2.9369" fill="#7a9a13" fill-rule="evenodd" stroke="#7fa019" stroke-linecap="round" stroke-width=".57256"/>
   <path d="m504.59 227.58-0.39201-3.5848" fill="#7a9a13" fill-rule="evenodd" stroke="#7fa019" stroke-linecap="round" stroke-width=".57256"/>
   <path d="m506.47 227.5-1.1638-3.0639" fill="#7a9a13" fill-rule="evenodd" stroke="#7fa019" stroke-linecap="round" stroke-width=".57256"/>
   <path d="m513.14 131.84-7.0293 58.037 8.5596-16.86 7.6783-49.88-9.2086 8.703z" fill="url(#a)" fill-rule="evenodd"/>
  </g>
  <g transform="matrix(.81528 -.03165 .01869 .85159 138.34 426.23)">
   <path d="m206.82 249.85c1.2346 3.5205-0.45876 12.323 0.84261 14.476 1.3807 2.2842 18.946-1.206 29 5.8646s21.749 26.015 13.926 42.498-32.406 29.075-46.113 29.082c-24.728-0.19329-39.526-6.8984-48.273-31.387-2.2319-9.4043-2.7478-12.117-0.15347-22.368 6.4031-20.223 22.771-22.875 41.515-25.282 7.6622-1.2139-2.5708-11.765 0.9081-13.187 2.9268-0.26974 8.3872-0.96528 8.3475 0.30437z" fill="#9c151c" fill-rule="evenodd"/>
   <path d="m205.1 251c1.1755 3.3521-0.43682 12.05 3.0183 14.417 3.0928 2.1184 18.04-1.1483 27.613 5.5841s20.709 24.771 13.26 40.465-30.856 27.684-43.908 27.691c-23.545-0.18405-37.635-6.5684-45.964-29.886-2.1251-8.9545-2.6163-11.537-0.14613-21.298 6.0968-19.255 21.682-21.781 39.529-24.073 7.2957-1.1559-2.4478-11.202 0.86467-12.556 2.7868-0.25684 5.77-1.5522 5.7322-0.34333z" fill="#e10119" fill-rule="evenodd"/>
   <path d="m190.14 267.6c-17.373 2.1804-29.729 19.251-27.609 38.077s17.919 32.334 35.292 30.154c0.3874 1.9793-20.65-15.411-24.125-31.346-1.9189-17.041 4.0453-32.649 18.837-37.068-0.78772 0.035-1.5991 0.0835-2.3945 0.18329z" fill="#9c151c" opacity=".3473"/>
   <path d="m219.38 271.37c-2.2312 0-4.3909 0.27149-6.4688 0.75 7.643 6.123 12.812 17.837 12.812 31.25 0 7.6363-1.6776 14.688-4.5312 20.5 14.365-0.88557 25.75-12.292 25.75-26.219 0-14.504-12.36-26.281-27.562-26.281z" fill="#fcaf3e" opacity=".3473"/>
   <path d="m199.98 251.48c-0.17537 1.3153 1.3412 6.9714 1.5784 9.2072s0.83808 3.1007-1.5247 3.4984-4.2244 0.79392-6.3588 0.79337-4.1631-0.32438-5.3008 1.2872-2.3964 2.8948-3.3158 4.4399 1.397 0.54306 3.1084 0.41185 6.2492-2.9049 7.3412-1.2236-2.1045 10.917-0.78919 11.312 5.9628-8.8564 8.6811-8.9441 6.182 8.2865 7.6288 8.418 2e-5 -7.3658 1.0523-7.6288 4.4721 6.1381 5.2612 6.0504-0.7404-6.004-0.52612-6.5766 3.3674 1.0827 1.8894-0.46768-1.2273-3.8418-4.0021-4.4894-6.9722-0.80901-8.7684-3.3588-0.72437-10.29-1.4697-12.614c-0.74535-0.43652-3.9054-0.48692-4.4851-0.11521z" fill="#639f1b" fill-rule="evenodd"/>
   <path d="m199.44 266.32c2.1862 1.2893-2.4798-4.4848-8.864 0-6.4573 4.5361-3.3269 6.2964-2.8491 4.1154 0.41183-1.8801 9.6554-5.329 11.713-4.1154z" fill="#8ae234" fill-rule="evenodd" opacity=".5076"/>
   <path d="m204.52 267.41c-2.1527 1.3445 2.3393-2.9234 8.8356 1.3974 8.9763 9.0107-5.9078-1.985-8.8356-1.3974z" fill="#8ae234" fill-rule="evenodd" opacity=".5076"/>
   <path d="m201.02 266-3.4823 4.1154-1.2663 8.2308 4.7486-12.346z" fill="#77c127" fill-rule="evenodd"/>
   <path d="m202.06 266.74 4.596 2.8177 3.7804 7.4201-8.3764-10.238z" fill="#77c127" fill-rule="evenodd"/>
  </g>
  <g transform="matrix(.81528 -.03165 .01869 .85159 202.99 430.27)">
   <path d="m206.82 249.85c1.2346 3.5205-0.45876 12.323 0.84261 14.476 1.3807 2.2842 18.946-1.206 29 5.8646s21.749 26.015 13.926 42.498-32.406 29.075-46.113 29.082c-24.728-0.19329-39.526-6.8984-48.273-31.387-2.2319-9.4043-2.7478-12.117-0.15347-22.368 6.4031-20.223 22.771-22.875 41.515-25.282 7.6622-1.2139-2.5708-11.765 0.9081-13.187 2.9268-0.26974 8.3872-0.96528 8.3475 0.30437z" fill="#9c151c" fill-rule="evenodd"/>
   <path d="m205.1 251c1.1755 3.3521-0.43682 12.05 3.0183 14.417 3.0928 2.1184 18.04-1.1483 27.613 5.5841s20.709 24.771 13.26 40.465-30.856 27.684-43.908 27.691c-23.545-0.18405-37.635-6.5684-45.964-29.886-2.1251-8.9545-2.6163-11.537-0.14613-21.298 6.0968-19.255 21.682-21.781 39.529-24.073 7.2957-1.1559-2.4478-11.202 0.86467-12.556 2.7868-0.25684 5.77-1.5522 5.7322-0.34333z" fill="#e10119" fill-rule="evenodd"/>
   <path d="m190.14 267.6c-17.373 2.1804-29.729 19.251-27.609 38.077s17.919 32.334 35.292 30.154c0.3874 1.9793-20.65-15.411-24.125-31.346-1.9189-17.041 4.0453-32.649 18.837-37.068-0.78772 0.035-1.5991 0.0835-2.3945 0.18329z" fill="#9c151c" opacity=".3473"/>
   <path d="m219.38 271.37c-2.2312 0-4.3909 0.27149-6.4688 0.75 7.643 6.123 12.812 17.837 12.812 31.25 0 7.6363-1.6776 14.688-4.5312 20.5 14.365-0.88557 25.75-12.292 25.75-26.219 0-14.504-12.36-26.281-27.562-26.281z" fill="#fcaf3e" opacity=".3473"/>
   <path d="m199.98 251.48c-0.17537 1.3153 1.3412 6.9714 1.5784 9.2072s0.83808 3.1007-1.5247 3.4984-4.2244 0.79392-6.3588 0.79337-4.1631-0.32438-5.3008 1.2872-2.3964 2.8948-3.3158 4.4399 1.397 0.54306 3.1084 0.41185 6.2492-2.9049 7.3412-1.2236-2.1045 10.917-0.78919 11.312 5.9628-8.8564 8.6811-8.9441 6.182 8.2865 7.6288 8.418 2e-5 -7.3658 1.0523-7.6288 4.4721 6.1381 5.2612 6.0504-0.7404-6.004-0.52612-6.5766 3.3674 1.0827 1.8894-0.46768-1.2273-3.8418-4.0021-4.4894-6.9722-0.80901-8.7684-3.3588-0.72437-10.29-1.4697-12.614c-0.74535-0.43652-3.9054-0.48692-4.4851-0.11521z" fill="#639f1b" fill-rule="evenodd"/>
   <path d="m199.44 266.32c2.1862 1.2893-2.4798-4.4848-8.864 0-6.4573 4.5361-3.3269 6.2964-2.8491 4.1154 0.41183-1.8801 9.6554-5.329 11.713-4.1154z" fill="#8ae234" fill-rule="evenodd" opacity=".5076"/>
   <path d="m204.52 267.41c-2.1527 1.3445 2.3393-2.9234 8.8356 1.3974 8.9763 9.0107-5.9078-1.985-8.8356-1.3974z" fill="#8ae234" fill-rule="evenodd" opacity=".5076"/>
   <path d="m201.02 266-3.4823 4.1154-1.2663 8.2308 4.7486-12.346z" fill="#77c127" fill-rule="evenodd"/>
   <path d="m202.06 266.74 4.596 2.8177 3.7804 7.4201-8.3764-10.238z" fill="#77c127" fill-rule="evenodd"/>
  </g>
  <g transform="matrix(.81528 -.03165 .01869 .85159 177.74 372.69)">
   <path d="m206.82 249.85c1.2346 3.5205-0.45876 12.323 0.84261 14.476 1.3807 2.2842 18.946-1.206 29 5.8646s21.749 26.015 13.926 42.498-32.406 29.075-46.113 29.082c-24.728-0.19329-39.526-6.8984-48.273-31.387-2.2319-9.4043-2.7478-12.117-0.15347-22.368 6.4031-20.223 22.771-22.875 41.515-25.282 7.6622-1.2139-2.5708-11.765 0.9081-13.187 2.9268-0.26974 8.3872-0.96528 8.3475 0.30437z" fill="#9c151c" fill-rule="evenodd"/>
   <path d="m205.1 251c1.1755 3.3521-0.43682 12.05 3.0183 14.417 3.0928 2.1184 18.04-1.1483 27.613 5.5841s20.709 24.771 13.26 40.465-30.856 27.684-43.908 27.691c-23.545-0.18405-37.635-6.5684-45.964-29.886-2.1251-8.9545-2.6163-11.537-0.14613-21.298 6.0968-19.255 21.682-21.781 39.529-24.073 7.2957-1.1559-2.4478-11.202 0.86467-12.556 2.7868-0.25684 5.77-1.5522 5.7322-0.34333z" fill="#e10119" fill-rule="evenodd"/>
   <path d="m190.14 267.6c-17.373 2.1804-29.729 19.251-27.609 38.077s17.919 32.334 35.292 30.154c0.3874 1.9793-20.65-15.411-24.125-31.346-1.9189-17.041 4.0453-32.649 18.837-37.068-0.78772 0.035-1.5991 0.0835-2.3945 0.18329z" fill="#9c151c" opacity=".3473"/>
   <path d="m219.38 271.37c-2.2312 0-4.3909 0.27149-6.4688 0.75 7.643 6.123 12.812 17.837 12.812 31.25 0 7.6363-1.6776 14.688-4.5312 20.5 14.365-0.88557 25.75-12.292 25.75-26.219 0-14.504-12.36-26.281-27.562-26.281z" fill="#fcaf3e" opacity=".3473"/>
   <path d="m199.98 251.48c-0.17537 1.3153 1.3412 6.9714 1.5784 9.2072s0.83808 3.1007-1.5247 3.4984-4.2244 0.79392-6.3588 0.79337-4.1631-0.32438-5.3008 1.2872-2.3964 2.8948-3.3158 4.4399 1.397 0.54306 3.1084 0.41185 6.2492-2.9049 7.3412-1.2236-2.1045 10.917-0.78919 11.312 5.9628-8.8564 8.6811-8.9441 6.182 8.2865 7.6288 8.418 2e-5 -7.3658 1.0523-7.6288 4.4721 6.1381 5.2612 6.0504-0.7404-6.004-0.52612-6.5766 3.3674 1.0827 1.8894-0.46768-1.2273-3.8418-4.0021-4.4894-6.9722-0.80901-8.7684-3.3588-0.72437-10.29-1.4697-12.614c-0.74535-0.43652-3.9054-0.48692-4.4851-0.11521z" fill="#639f1b" fill-rule="evenodd"/>
   <path d="m199.44 266.32c2.1862 1.2893-2.4798-4.4848-8.864 0-6.4573 4.5361-3.3269 6.2964-2.8491 4.1154 0.41183-1.8801 9.6554-5.329 11.713-4.1154z" fill="#8ae234" fill-rule="evenodd" opacity=".5076"/>
   <path d="m204.52 267.41c-2.1527 1.3445 2.3393-2.9234 8.8356 1.3974 8.9763 9.0107-5.9078-1.985-8.8356-1.3974z" fill="#8ae234" fill-rule="evenodd" opacity=".5076"/>
   <path d="m201.02 266-3.4823 4.1154-1.2663 8.2308 4.7486-12.346z" fill="#77c127" fill-rule="evenodd"/>
   <path d="m202.06 266.74 4.596 2.8177 3.7804 7.4201-8.3764-10.238z" fill="#77c127" fill-rule="evenodd"/>
  </g>
  <g transform="matrix(.81528 -.03165 .01869 .85159 230.27 381.78)">
   <path d="m206.82 249.85c1.2346 3.5205-0.45876 12.323 0.84261 14.476 1.3807 2.2842 18.946-1.206 29 5.8646s21.749 26.015 13.926 42.498-32.406 29.075-46.113 29.082c-24.728-0.19329-39.526-6.8984-48.273-31.387-2.2319-9.4043-2.7478-12.117-0.15347-22.368 6.4031-20.223 22.771-22.875 41.515-25.282 7.6622-1.2139-2.5708-11.765 0.9081-13.187 2.9268-0.26974 8.3872-0.96528 8.3475 0.30437z" fill="#9c151c" fill-rule="evenodd"/>
   <path d="m205.1 251c1.1755 3.3521-0.43682 12.05 3.0183 14.417 3.0928 2.1184 18.04-1.1483 27.613 5.5841s20.709 24.771 13.26 40.465-30.856 27.684-43.908 27.691c-23.545-0.18405-37.635-6.5684-45.964-29.886-2.1251-8.9545-2.6163-11.537-0.14613-21.298 6.0968-19.255 21.682-21.781 39.529-24.073 7.2957-1.1559-2.4478-11.202 0.86467-12.556 2.7868-0.25684 5.77-1.5522 5.7322-0.34333z" fill="#e10119" fill-rule="evenodd"/>
   <path d="m190.14 267.6c-17.373 2.1804-29.729 19.251-27.609 38.077s17.919 32.334 35.292 30.154c0.3874 1.9793-20.65-15.411-24.125-31.346-1.9189-17.041 4.0453-32.649 18.837-37.068-0.78772 0.035-1.5991 0.0835-2.3945 0.18329z" fill="#9c151c" opacity=".3473"/>
   <path d="m219.38 271.37c-2.2312 0-4.3909 0.27149-6.4688 0.75 7.643 6.123 12.812 17.837 12.812 31.25 0 7.6363-1.6776 14.688-4.5312 20.5 14.365-0.88557 25.75-12.292 25.75-26.219 0-14.504-12.36-26.281-27.562-26.281z" fill="#fcaf3e" opacity=".3473"/>
   <path d="m199.98 251.48c-0.17537 1.3153 1.3412 6.9714 1.5784 9.2072s0.83808 3.1007-1.5247 3.4984-4.2244 0.79392-6.3588 0.79337-4.1631-0.32438-5.3008 1.2872-2.3964 2.8948-3.3158 4.4399 1.397 0.54306 3.1084 0.41185 6.2492-2.9049 7.3412-1.2236-2.1045 10.917-0.78919 11.312 5.9628-8.8564 8.6811-8.9441 6.182 8.2865 7.6288 8.418 2e-5 -7.3658 1.0523-7.6288 4.4721 6.1381 5.2612 6.0504-0.7404-6.004-0.52612-6.5766 3.3674 1.0827 1.8894-0.46768-1.2273-3.8418-4.0021-4.4894-6.9722-0.80901-8.7684-3.3588-0.72437-10.29-1.4697-12.614c-0.74535-0.43652-3.9054-0.48692-4.4851-0.11521z" fill="#639f1b" fill-rule="evenodd"/>
   <path d="m199.44 266.32c2.1862 1.2893-2.4798-4.4848-8.864 0-6.4573 4.5361-3.3269 6.2964-2.8491 4.1154 0.41183-1.8801 9.6554-5.329 11.713-4.1154z" fill="#8ae234" fill-rule="evenodd" opacity=".5076"/>
   <path d="m204.52 267.41c-2.1527 1.3445 2.3393-2.9234 8.8356 1.3974 8.9763 9.0107-5.9078-1.985-8.8356-1.3974z" fill="#8ae234" fill-rule="evenodd" opacity=".5076"/>
   <path d="m201.02 266-3.4823 4.1154-1.2663 8.2308 4.7486-12.346z" fill="#77c127" fill-rule="evenodd"/>
   <path d="m202.06 266.74 4.596 2.8177 3.7804 7.4201-8.3764-10.238z" fill="#77c127" fill-rule="evenodd"/>
  </g>
  <g transform="matrix(1.0494 -1.1052 1.1052 1.0494 -403.17 317.76)">
   <g transform="translate(-28.217 203.16)">
    <g transform="matrix(.85466 .27631 .30204 -.93426 -87.433 -302.98)">
     <path d="m488.9-320.14c0.93856-1.4559-2.3552-12.083-2.6663-13.364s-0.0454-0.24006-0.0903-0.33168 0.28377 0.37617-0.20269-0.2687-1.8299-3.8621-3.0404-4.0304-2.307 0.70623-2.4704 1.8708 2.0486 2.0427 2.8459 3.7919 0.28648 6.9872 1.6956 7.8943 2.99 5.8942 3.9285 4.4383z" fill="#829a6b" fill-rule="evenodd"/>
     <path d="m478.71-318.17c1.5212-1.7135-1.2062-15.175-3.0761-16.653s-1.5994-1.5178-3.0781 0.35211 2.041 12.885 3.0786 11.307 1.5543 6.7078 3.0756 4.9943z" fill="#829a6b" fill-rule="evenodd"/>
     <path d="m478.57-297.41 0.41795-12.746s-4.3848 3.1788-5.3613 4.6994 0.36648 7.7401 1.887 8.7167 3.0563-0.67005 3.0563-0.67005z" fill="#829a6b" fill-rule="evenodd"/>
     <path d="m479.26-300.47c0.3482-2.4652-4.7167-5.8695-4.9695-8.1716s0.206-4.2539 1.8909-5.5629 6.335 0.63028 8.3235-0.64898 2.981-4.5211 3.5888-6.4878-0.48378-4.1098 0.59339-6.2806 6.7707-4.3489 7.2467-6.6673-1.6478-0.54739-2.4296-5.4109 2.953-16.311 2.7738-26.765-3.2213-31.979-5.8676-42.391-5.5097-20.124-10.16-26.972-12.61-15.078-19.505-17.737-16.632-2.8608-22.9 0.042-12.544 10.582-15.004 17.628-0.5566 19.488 0.88413 26.586 4.8027 13.709 7.7857 20.236 9.1182 14.328 12.313 23.079 5.0958 29.389 7.4962 35.157 2.5535 3.3662 3.1197 4.7759-0.49711 2.2707 0.81453 4.3481 8.3246 4.588 9.6627 7.0396 1.3667 5.038 0.38667 6.6533-4.8358 0.19905-5.4109 2.4296 3.3937 5.9945 5.6596 7.5366 6.2155 2.9073 8.5306 2.3464 4.828-2.2972 5.1762-4.7624z" fill="#552f53" fill-rule="evenodd" stroke="#000039" stroke-width="1.8166"/>
     <path d="m479.12-308.75c0.28374-2.3072-4.5124-5.5878-4.788-7.7522s0.12025-3.988 1.6742-5.1876 5.937 0.69929 7.7755-0.4672 2.7116-4.1915 3.2467-6.0265-0.52257-3.8646 0.44813-5.8832 6.2598-3.9654 6.6656-6.1327-1.5508-0.54169-2.365-5.1186 2.4847-15.255 2.139-25.067-3.5582-30.062-6.211-39.876-5.497-18.976-9.964-25.481-12.053-14.363-18.549-16.975-15.608-2.9676-21.422-0.35059-11.554 9.7161-13.736 16.285-0.1888 18.277 1.2799 24.961 4.7264 12.945 7.6281 19.12 8.7739 13.6 11.912 21.866 5.2675 27.663 7.6114 33.117 2.4461 3.202 2.9998 4.5345-0.42636 2.1222 0.83603 4.0938 7.8657 4.4468 9.1592 6.77 1.3644 4.7505 0.47503 6.2495-4.5205 0.10441-5.0204 2.1876 3.2769 5.6826 5.4229 7.1681 5.864 2.8338 8.0202 2.347 4.4774-2.0733 4.7612-4.3805z" fill="url(#b)" fill-rule="evenodd"/>
     <path d="m484.93-412.05c-8.6419-34.13-26.676-36.257-41.789-39.51 20.937 21.414 32.499 24.666 45.394 101.21 2.4959-36.636 1.2346-41.245-3.605-61.697z" fill="#774666"/>
     <path d="m494.24-333.36c0.47598-2.3184 0.91343-4.6761-2.4296-5.4109s-8.6707 11.404-12.74 11.085-4.3765-5.759-6.6397-7.9092-5.7665-6-8.3651-6.3218-5.7088 0.84718-6.4186 2.7195 4.5003 4.2084 2.7471 5.756-5.8387-5.3772-7.7577-4.9691-1.9178 1.0132-2.1257 3.2301 3.1848 8.508 4.2242 10.132 1.0364 0.74253 1.27 1.3803 0.12943 0.61008 1.2148 2.7055 8.3433 4.3369 9.6627 7.0396 0.6452 5.4089-0.62097 6.9432-5.2822-0.78064-6.0459 1.7394 4.79 7.4558 7.2747 8.5994 5.31 0.51807 6.9708-0.0416 3.3534-0.51784 3.7683-2.8298-5.603-6.5453-5.922-9.2068 0.17224-5.1181 2.2636-6.5429 7.3283 2.4447 9.9386 0.41385 0.85736-8.9813 2.4843-11.844 6.7707-4.3489 7.2467-6.6673z" fill="#93b279" fill-rule="evenodd"/>
     <path d="m483.14-316.46c1.7134-1.2307 0.0963-6.6021 0.98775-8.8496s4.5574-4.24 4.3317-5.7689 2.0964-2.2726 0.50603-2.0358-6.8249 5.3657-7.5626 6.3201-0.2099 0.20544-0.25665 0.32106 0.26549-0.96373-0.0395 0.41856c-0.30504 1.3823-0.4133 7.1254 0.62177 8.9829s-0.30188 1.8425 1.4115 0.61179z" fill="#829a6b" fill-rule="evenodd"/>
     <path d="m475.15-325.24c0.16362-1.7245-7.6493-9.6448-8.5152-10.64s-0.15069-0.19229-0.23274-0.25297 0.425 0.20348-0.30358-0.14533-3.4014-2.5874-4.5536-2.1801-1.7235 1.6883-1.3329 2.7975 2.7586 0.87142 4.2712 2.0577 3.4686 6.0723 5.137 6.2295 5.3662 3.8581 5.5298 2.1336z" fill="#829a6b" fill-rule="evenodd"/>
     <path d="m467.01-318.82c0.56253-2.2212-8.0514-12.919-10.392-13.372s-2.1183-0.6119-2.5711 1.7286 7.7396 10.502 7.9348 8.6233 4.4657 5.241 5.0283 3.0198z" fill="#829a6b" fill-rule="evenodd"/>
     <path d="m476.43-300.31-5.4921-11.51s-2.431 4.8395-2.5986 6.6389 3.8859 6.704 5.6852 6.8716 2.4055-2.0009 2.4055-2.0009z" fill="#829a6b" fill-rule="evenodd"/>
    </g>
   </g>
  </g>
  <path d="m337.98 520.31-0.56011 191.48" fill="none" stroke="#806600" stroke-linecap="round" stroke-linejoin="round" stroke-width="16"/>
  <path d="m138.54 512.71 57.199 195.79" fill="none" stroke="#806600" stroke-linecap="round" stroke-linejoin="round" stroke-width="16"/>
  <path d="m240.22 512.08 27.199 200.88" fill="none" stroke="#806600" stroke-linecap="round" stroke-linejoin="round" stroke-width="16"/>
  <path d="m535.18 509.42-56.079 198.53" fill="none" stroke="#806600" stroke-linecap="round" stroke-linejoin="round" stroke-width="16"/>
  <path d="m434.86 512.99-26.878 200.91" fill="none" stroke="#806600" stroke-linecap="round" stroke-linejoin="round" stroke-width="16"/>
  <g transform="matrix(.95212 0 0 -.68063 42.534 689.08)" fill="none" stroke="#a80" stroke-linecap="round" stroke-linejoin="round" stroke-width="12.422">
   <path d="m203.71 250.68s37.038 10 56 10 56-10 56-10"/>
   <path d="m303.71 250.68s37.038 10 56 10 56-10 56-10"/>
   <path d="m403.71 250.68s37.107 12.506 56 15.877c20.63 3.6813 62.302 4.6924 62.302 4.6924"/>
   <path d="m101.61 265.37s38.812 0.75266 58.101-1.7539c18.838-2.4481 56-12.938 56-12.938"/>
  </g>
  <g transform="translate(27.706 292.41)" fill="none" stroke="#d4aa00" stroke-linecap="round" stroke-linejoin="round" stroke-width="10">
   <path d="m235.28 434.68s25.8 10 39.326 10 39.326-10 39.326-10"/>
   <path d="m305.5 434.68s25.8 10 39.326 10 39.326-10 39.326-10"/>
   <path d="m375.73 428.68s25.964 8.6384 39.326 8c13.69-0.65403 39.326-12 39.326-12"/>
   <path d="m165.05 424.68s25.636 11.346 39.326 12c13.362 0.63837 39.326-8 39.326-8"/>
  </g>
  <g transform="translate(27.706 290.41)" fill="none" stroke="#a80" stroke-linecap="round" stroke-linejoin="round" stroke-width="10">
   <path d="m268.97 422.46s27.001 7.4795 40.824 7.4795 40.824-7.4795 40.824-7.4795"/>
   <path d="m343.66 420.46s27.001 7.4795 40.824 7.4795 40.824-7.4795 40.824-7.4795"/>
   <path d="m206.24 420.46s27.001 7.4795 40.824 7.4795 40.824-7.4795 40.824-7.4795"/>
   <path d="m158.76 418.46s17.809 7.4795 27.217 7.4795 27.217-7.4795 27.217-7.4795"/>
   <path d="m459.66 418.46s-17.809 7.4795-27.217 7.4795-27.217-7.4795-27.217-7.4795"/>
  </g>
  <g transform="matrix(.74579 0 0 1 106.44 446.41)" fill="none" stroke="#d4aa00" stroke-linecap="round" stroke-linejoin="round" stroke-width="11.58">
   <path d="m203.71 250.68s37.038 10 56 10 56-10 56-10"/>
   <path d="m303.71 250.68s37.038 10 56 10 56-10 56-10"/>
   <path d="m403.71 250.68s37.038 10 56 10 56-10 56-10"/>
   <path d="m103.71 250.68s37.038 10 56 10 56-10 56-10"/>
  </g>
  <g transform="matrix(.76659 0 0 1 99.879 446.41)" fill="none" stroke="#a80" stroke-linecap="round" stroke-linejoin="round" stroke-width="11.421">
   <path d="m255.34 238.68s36.151 10 54.659 10 54.659-10 54.659-10"/>
   <path d="m355.34 238.68s36.151 10 54.659 10 54.659-10 54.659-10"/>
   <path d="m171.34 238.68s36.151 10 54.659 10 54.659-10 54.659-10"/>
   <path d="m107.77 238.68s23.845 10 36.441 10 36.441-10 36.441-10"/>
   <path d="m510.65 238.68s-23.845 10-36.441 10-36.441-10-36.441-10"/>
  </g>
  <g transform="matrix(.7669 0 0 1 99.9 424.41)" fill="none" stroke="#d4aa00" stroke-linecap="round" stroke-linejoin="round" stroke-width="11.419">
   <path d="m203.71 250.68s37.038 10 56 10 56-10 56-10"/>
   <path d="m303.71 250.68s37.038 10 56 10 56-10 56-10"/>
   <path d="m403.71 250.68s37.038 10 56 10 56-10 56-10"/>
   <path d="m103.71 250.68s37.038 10 56 10 56-10 56-10"/>
  </g>
  <g transform="matrix(.81238 0 0 1 85.721 422.41)" fill="none" stroke="#a80" stroke-linecap="round" stroke-linejoin="round" stroke-width="11.095">
   <path d="m255.34 238.68s36.151 10 54.659 10 54.659-10 54.659-10"/>
   <path d="m355.34 238.68s36.151 10 54.659 10 54.659-10 54.659-10"/>
   <path d="m171.34 238.68s36.151 10 54.659 10 54.659-10 54.659-10"/>
   <path d="m107.77 238.68s23.845 10 36.441 10 36.441-10 36.441-10"/>
   <path d="m510.65 238.68s-23.845 10-36.441 10-36.441-10-36.441-10"/>
  </g>
  <g transform="matrix(.80508 0 0 1 88.076 398.41)" fill="none" stroke="#d4aa00" stroke-linecap="round" stroke-linejoin="round" stroke-width="11.145">
   <path d="m203.71 250.68s37.038 10 56 10 56-10 56-10"/>
   <path d="m303.71 250.68s37.038 10 56 10 56-10 56-10"/>
   <path d="m403.71 250.68s37.038 10 56 10 56-10 56-10"/>
   <path d="m103.71 250.68s37.038 10 56 10 56-10 56-10"/>
  </g>
  <g transform="matrix(.84293 0 0 1 76.274 396.41)" fill="none" stroke="#a80" stroke-linecap="round" stroke-linejoin="round" stroke-width="10.892">
   <path d="m255.34 238.68s36.151 10 54.659 10 54.659-10 54.659-10"/>
   <path d="m355.34 238.68s36.151 10 54.659 10 54.659-10 54.659-10"/>
   <path d="m171.34 238.68s36.151 10 54.659 10 54.659-10 54.659-10"/>
   <path d="m107.77 238.68s23.845 10 36.441 10 36.441-10 36.441-10"/>
   <path d="m510.65 238.68s-23.845 10-36.441 10-36.441-10-36.441-10"/>
  </g>
  <g transform="matrix(.84084 0 0 1 77 372.41)" fill="none" stroke="#d4aa00" stroke-linecap="round" stroke-linejoin="round" stroke-width="10.905">
   <path d="m203.71 250.68s37.038 10 56 10 56-10 56-10"/>
   <path d="m303.71 250.68s37.038 10 56 10 56-10 56-10"/>
   <path d="m403.71 250.68s37.038 10 56 10 56-10 56-10"/>
   <path d="m103.71 250.68s37.038 10 56 10 56-10 56-10"/>
  </g>
  <g transform="matrix(.87352 0 0 1 66.816 370.41)" fill="none" stroke="#a80" stroke-linecap="round" stroke-linejoin="round" stroke-width="10.7">
   <path d="m255.34 238.68s36.151 10 54.659 10 54.659-10 54.659-10"/>
   <path d="m355.34 238.68s36.151 10 54.659 10 54.659-10 54.659-10"/>
   <path d="m171.34 238.68s36.151 10 54.659 10 54.659-10 54.659-10"/>
   <path d="m107.77 238.68s23.845 10 36.441 10 36.441-10 36.441-10"/>
   <path d="m510.65 238.68s-23.845 10-36.441 10-36.441-10-36.441-10"/>
  </g>
  <g transform="matrix(.88056 0 0 1 64.699 346.41)" fill="none" stroke="#d4aa00" stroke-linecap="round" stroke-linejoin="round" stroke-width="10.657">
   <path d="m203.71 250.68s37.038 10 56 10 56-10 56-10"/>
   <path d="m303.71 250.68s37.038 10 56 10 56-10 56-10"/>
   <path d="m403.71 250.68s37.038 10 56 10 56-10 56-10"/>
   <path d="m103.71 250.68s37.038 10 56 10 56-10 56-10"/>
  </g>
  <g transform="matrix(.90797 0 0 1 56.164 342.41)" fill="none" stroke="#a80" stroke-linecap="round" stroke-linejoin="round" stroke-width="10.495">
   <path d="m255.34 238.68s36.151 10 54.659 10 54.659-10 54.659-10"/>
   <path d="m355.34 238.68s36.151 10 54.659 10 54.659-10 54.659-10"/>
   <path d="m171.34 238.68s36.151 10 54.659 10 54.659-10 54.659-10"/>
   <path d="m107.77 238.68s23.845 10 36.441 10 36.441-10 36.441-10"/>
   <path d="m510.65 238.68s-23.845 10-36.441 10-36.441-10-36.441-10"/>
  </g>
  <g transform="matrix(.9124 0 0 1 54.837 318.41)" fill="none" stroke="#d4aa00" stroke-linecap="round" stroke-linejoin="round" stroke-width="10.469">
   <path d="m203.71 250.68s37.038 10 56 10 56-10 56-10"/>
   <path d="m303.71 250.68s37.038 10 56 10 56-10 56-10"/>
   <path d="m403.71 250.68s37.038 10 56 10 56-10 56-10"/>
   <path d="m103.71 250.68s37.038 10 56 10 56-10 56-10"/>
  </g>
  <g transform="matrix(.95779 0 0 1 40.757 314.41)" fill="none" stroke="#a80" stroke-linecap="round" stroke-linejoin="round" stroke-width="10.218">
   <path d="m255.34 238.68s36.151 10 54.659 10 54.659-10 54.659-10"/>
   <path d="m355.34 238.68s36.151 10 54.659 10 54.659-10 54.659-10"/>
   <path d="m171.34 238.68s36.151 10 54.659 10 54.659-10 54.659-10"/>
   <path d="m105.68 236.68s25.026 11.771 38.529 12c12.634 0.21395 36.441-10 36.441-10"/>
   <path d="m512.74 236.68s-25.026 11.771-38.529 12c-12.634 0.21395-36.441-10-36.441-10"/>
  </g>
  <g transform="matrix(.95222 0 0 1 42.504 290.41)" fill="none" stroke="#d4aa00" stroke-linecap="round" stroke-linejoin="round" stroke-width="10.248">
   <path d="m203.71 250.68s37.038 10 56 10 56-10 56-10"/>
   <path d="m303.71 250.68s37.038 10 56 10 56-10 56-10"/>
   <path d="m403.71 250.68s40.059 7.1239 60.201 6c19.101-1.0658 56-12 56-12"/>
   <path d="m99.514 244.68s36.734 12.916 56 14c20.226 1.1385 60.201-8 60.201-8"/>
  </g>
  <g transform="translate(27.706 286.41)" fill="none" stroke="#a80" stroke-linecap="round" stroke-linejoin="round" stroke-width="10">
   <path d="m255.34 238.68s36.151 10 54.659 10 54.659-10 54.659-10"/>
   <path d="m355.34 238.68s36.151 10 54.659 10 54.659-10 54.659-10"/>
   <path d="m171.34 238.68s36.151 10 54.659 10 54.659-10 54.659-10"/>
   <path d="m105.77 234.68s25.214 9.3957 38.441 10c12.298 0.56186 36.441-6 36.441-6"/>
   <path d="m512.65 232.68s-23.845 9.9161-36.441 10c-13.24 0.0882-38.441-10-38.441-10"/>
  </g>
  <g transform="translate(27.706 286.41)" fill="none" stroke="#d4aa00" stroke-linecap="round" stroke-linejoin="round" stroke-width="10">
   <path d="m212.25 222.68s31.42 16.623 48.659 18c17.158 1.3705 50.659-10 50.659-10"/>
   <path d="m307.86 230.68s33.468 10.861 50.659 10c18.322-0.91766 52.659-16 52.659-16"/>
   <path d="m405.46 222.68s36.271 8.9701 54.659 8c18.782-0.99083 54.659-14 54.659-14"/>
   <path d="m106.65 218.68s35.863 13.344 54.659 14c18.511 0.64621 54.659-10 54.659-10"/>
  </g>
 </g>
</svg>
